Coordinates
version=1
nRows=17
nColumns=40
inDegrees=yes

Units are S.I. units (second, meters, Newtons, ...)
If the header above contains a line with 'inDegrees', this indicates whether rotational values are in degrees (yes) or radians (no).

endheader
time	pelvis_tilt	pelvis_list	pelvis_rotation	pelvis_tx	pelvis_ty	pelvis_tz	hip_flexion_r	hip_adduction_r	hip_rotation_r	knee_angle_r	knee_angle_r_beta	ankle_angle_r	subtalar_angle_r	mtp_angle_r	hip_flexion_l	hip_adduction_l	hip_rotation_l	knee_angle_l	knee_angle_l_beta	ankle_angle_l	subtalar_angle_l	mtp_angle_l	lumbar_extension	lumbar_bending	lumbar_rotation	arm_flex_r	arm_add_r	arm_rot_r	elbow_flex_r	pro_sup_r	wrist_flex_r	wrist_dev_r	arm_flex_l	arm_add_l	arm_rot_l	elbow_flex_l	pro_sup_l	wrist_flex_l	wrist_dev_l
      7.78300000	    -25.78363772	     -1.37128948	      3.57600491	      0.07356391	      1.27129198	     -0.00394476	    102.84239047	     -4.17760750	     10.79667124	    104.16802481	      1.81807501	    -11.14834493	    -18.19801623	      0.00000000	     54.83667634	     -4.88633530	     -1.24414231	     47.70873203	      0.83267446	    -21.20434115	    -23.36724355	      0.00000000	    -22.24981886	     -5.74506899	      3.40904338	     64.03168587	     15.07293963	    -66.49170210	     30.25385255	     82.62591813	      0.00000000	      0.00000000	     57.50450122	     18.39196176	    -36.83585476	     32.18712596	      2.36034515	      0.00000000	      0.00000000
      7.80000000	    -25.81405859	     -1.40411566	      3.78972711	      0.07366800	      1.27117336	     -0.00427694	    102.80940882	     -4.20924278	     10.55563886	    101.99443248	      1.78013867	    -10.86587378	    -18.31533437	      0.00000000	     55.75044180	     -4.80116804	     -0.72307011	     50.99395290	      0.89001238	    -21.22953420	    -23.52607158	      0.00000000	    -22.21699932	     -5.66055969	      3.22258824	     64.10319674	     15.14525143	    -66.73674261	     30.35391804	     82.87539160	      0.00000000	      0.00000000	     57.53532945	     18.38501223	    -36.71790451	     32.21919114	      2.23666085	      0.00000000	      0.00000000
      7.81700000	    -25.53777576	     -0.89824998	      4.09837882	      0.07396970	      1.27162544	     -0.00456791	    102.16139514	     -4.32704581	     10.77786618	     99.61113619	      1.73854230	    -10.61953022	    -18.55273093	      0.00000000	     56.36431864	     -4.34475199	     -0.65112561	     54.30139967	      0.94773821	    -21.57670338	    -23.43466332	      0.00000000	    -22.59456425	     -6.11701854	      2.72931887	     64.17085897	     15.22005296	    -66.74135037	     30.42753786	     82.93652520	      0.00000000	      0.00000000	     57.66203925	     18.35854950	    -36.66949702	     32.25959764	      2.22578685	      0.00000000	      0.00000000
      7.83300000	    -25.59424775	     -1.27337638	      4.32468072	      0.07392138	      1.27131318	     -0.00491056	    101.41689983	     -4.58689422	      9.92366911	     96.78609308	      1.68923599	    -10.59144516	    -18.97162180	      0.00000000	     57.83359370	     -4.45396294	      0.11920097	     58.29469147	      1.01743430	    -21.23181292	    -23.88223979	      0.00000000	    -22.44027065	     -5.63266037	      2.62408519	     64.25835967	     15.24797168	    -66.95341674	     30.38705645	     83.20408308	      0.00000000	      0.00000000	     57.65825181	     18.42363311	    -36.83316355	     32.31857325	      2.19241988	      0.00000000	      0.00000000
      7.85000000	    -25.50683774	     -1.15736948	      4.63294658	      0.07389215	      1.27141196	     -0.00534692	    100.27150547	     -4.93234331	      9.52110985	     93.84512068	      1.63790634	    -10.66329656	    -19.44388183	      0.00000000	     59.08304224	     -4.19673043	      0.49504980	     62.06840982	      1.08329811	    -21.19151565	    -24.01302769	      0.00000000	    -22.53368609	     -5.64933613	      2.28775752	     64.30973710	     15.27408569	    -67.03126105	     30.40381297	     83.38788884	      0.00000000	      0.00000000	     57.71058628	     18.46956342	    -36.94330210	     32.35523008	      2.18989586	      0.00000000	      0.00000000
      7.86700000	    -25.42639352	     -1.14854072	      4.94627147	      0.07389814	      1.27146102	     -0.00575394	     98.77217643	     -5.38044035	      8.85848245	     90.72434493	      1.58343853	    -10.67585435	    -20.03300186	      0.00000000	     60.45688447	     -3.97196936	      1.00756853	     65.93157766	      1.15072311	    -21.00532527	    -24.21368377	      0.00000000	    -22.59446144	     -5.56586480	      2.01564583	     64.32891485	     15.26635997	    -67.15162219	     30.39549575	     83.52027496	      0.00000000	      0.00000000	     57.73545721	     18.52594853	    -37.02002663	     32.35804756	      2.18464516	      0.00000000	      0.00000000
      7.88300000	    -25.37038441	     -1.20530565	      5.20877628	      0.07381504	      1.27152429	     -0.00608517	     96.95919939	     -5.80757623	      8.00011326	     87.35302386	      1.52459788	    -10.78809565	    -20.82212285	      0.00000000	     61.98130850	     -3.80892149	      1.58985522	     69.80911835	      1.21839896	    -20.89903273	    -24.19937833	      0.00000000	    -22.61935460	     -5.43736062	      1.85223453	     64.34343120	     15.22689882	    -67.29139814	     30.38824047	     83.66123432	      0.00000000	      0.00000000	     57.74692374	     18.61394283	    -37.09849519	     32.34089461	      2.17959984	      0.00000000	      0.00000000
      7.90000000	    -25.30579475	     -1.18256386	      5.56567339	      0.07365047	      1.27160756	     -0.00666962	     94.92952162	     -6.39729232	      7.21289198	     83.89943053	      1.46432130	    -10.97763713	    -21.20393912	      0.00000000	     63.56313769	     -3.49903755	      2.10646975	     73.63415091	      1.28515838	    -20.56215962	    -24.20373138	      0.00000000	    -22.67243504	     -5.36942380	      1.57349269	     64.34209462	     15.14479711	    -67.33226905	     30.30954010	     83.26583156	      0.00000000	      0.00000000	     57.78115379	     18.68890191	    -37.17567862	     32.25760632	      2.31991934	      0.00000000	      0.00000000
      7.91700000	    -25.28332163	     -1.25350842	      5.99117160	      0.07349261	      1.27160549	     -0.00739664	     92.68170590	     -7.03765067	      6.29899592	     80.28205732	      1.40118623	    -11.32117573	    -21.58783331	      0.00000000	     65.34559910	     -3.17566113	      2.73182950	     77.45856367	      1.35190697	    -20.22282397	    -24.14961919	      0.00000000	    -22.65109840	     -5.19480365	      1.25801353	     64.30072462	     15.11297423	    -67.47554237	     30.25812222	     82.95155773	      0.00000000	      0.00000000	     57.77101805	     18.74465352	    -37.24178998	     32.16836787	      2.38690230	      0.00000000	      0.00000000
      7.93300000	    -25.29619635	     -1.40526028	      6.42363662	      0.07322379	      1.27156771	     -0.00812992	     90.22127744	     -7.69342810	      5.19475626	     76.50433498	      1.33525254	    -11.76764965	    -21.93067055	      0.00000000	     67.30200401	     -2.85890595	      3.44641562	     81.24214133	      1.41794286	    -19.80158323	    -23.98424572	      0.00000000	    -22.59228588	     -4.96843741	      0.99639397	     64.26037119	     15.05830823	    -67.73199029	     30.24594385	     82.74069808	      0.00000000	      0.00000000	     57.76977105	     18.84717203	    -37.29050348	     32.08997882	      2.34946823	      0.00000000	      0.00000000
      7.95000000	    -25.35860252	     -1.56276633	      6.84621906	      0.07292025	      1.27146000	     -0.00888101	     87.68068607	     -8.29804224	      4.05103830	     72.72290315	      1.26925410	    -12.30806995	    -22.21048361	      0.00000000	     69.39149111	     -2.49690076	      4.18883027	     84.88094328	      1.48145193	    -19.48926014	    -23.70542953	      0.00000000	    -22.46822945	     -4.75385342	      0.74369884	     64.19457339	     15.01269347	    -68.01876910	     30.24941180	     82.59645192	      0.00000000	      0.00000000	     57.73259892	     18.93485127	    -37.30958165	     31.99615859	      2.30834681	      0.00000000	      0.00000000
      7.96700000	    -25.43172423	     -1.87178743	      7.24410867	      0.07256072	      1.27130968	     -0.00955806	     85.00959246	     -8.78045505	      2.72333745	     68.94372098	      1.20329493	    -12.95209261	    -22.55824439	      0.00000000	     71.62955434	     -2.17021313	      5.12934205	     88.43166822	      1.54342377	    -19.19752227	    -23.22395973	      0.00000000	    -22.31326411	     -4.39729291	      0.61033007	     64.13480540	     14.96281366	    -68.40446371	     30.28297252	     82.56576531	      0.00000000	      0.00000000	     57.66892040	     19.05408037	    -37.25858597	     31.91630480	      2.23506030	      0.00000000	      0.00000000
      7.98300000	    -25.55515047	     -2.15746514	      7.58557817	      0.07218761	      1.27111166	     -0.01006101	     82.25766841	     -9.14012192	      1.34617295	     65.13859611	      1.13688297	    -13.70158877	    -22.94550201	      0.00000000	     73.99199482	     -1.89003570	      6.01849082	     91.83537043	      1.60282958	    -18.81959799	    -22.47315799	      0.00000000	    -22.10269188	     -4.12021211	      0.49844601	     64.06643000	     14.94633256	    -68.90625409	     30.35073942	     82.77795977	      0.00000000	      0.00000000	     57.60974466	     19.08711005	    -37.09339686	     31.80645481	      2.19199371	      0.00000000	      0.00000000
      8.00000000	    -25.70738177	     -2.38184351	      8.04577128	      0.07172637	      1.27087960	     -0.01083551	     79.55820198	     -9.62943345	      0.07881612	     61.47299696	      1.07290620	    -14.53921597	    -22.69733530	      0.00000000	     76.45453101	     -1.33258729	      6.83266424	     94.97385603	      1.65760649	    -18.74095755	    -22.14301657	      0.00000000	    -21.88491978	     -3.85219970	      0.26373659	     63.95753529	     14.84045182	    -69.08848624	     30.36714310	     82.92421656	      0.00000000	      0.00000000	     57.55930422	     19.13830334	    -36.92910856	     31.66369542	      2.18965208	      0.00000000	      0.00000000
      8.01700000	    -25.88453601	     -2.42440245	      8.52507285	      0.07123068	      1.27063855	     -0.01155313	     76.92344515	    -10.15192078	     -0.96116842	     57.94056369	      1.01125361	    -15.63486801	    -22.13170317	      0.00000000	     78.97935080	     -0.59679913	      7.41423932	     97.81653061	      1.70722052	    -18.91522122	    -21.97834090	      0.00000000	    -21.67694854	     -3.77982564	     -0.06571557	     63.82957425	     14.66539551	    -69.05379600	     30.28501115	     82.94145160	      0.00000000	      0.00000000	     57.52217088	     19.17930832	    -36.80476166	     31.54366632	      2.23897845	      0.00000000	      0.00000000
      8.03300000	    -26.05337627	     -2.84712490	      8.94225657	      0.07077336	      1.27032052	     -0.01215188	     74.16899588	    -10.40245096	     -2.41112721	     54.46853773	      0.95065532	    -16.60377932	    -21.85817563	      0.00000000	     81.71299048	      0.02980013	      8.34623953	    100.45534694	      1.75327656	    -19.32526640	    -21.74125475	      0.00000000	    -21.40268491	     -3.31348290	     -0.25265838	     63.67345139	     14.46018806	    -68.72869647	     30.15197237	     82.95326321	      0.00000000	      0.00000000	     57.43608235	     19.16462258	    -36.55794581	     31.40995817	      2.19063172	      0.00000000	      0.00000000
      8.05000000	    -26.26333272	     -2.83838933	      9.39259127	      0.07028345	      1.27009643	     -0.01280218	     71.64393740	    -10.81623468	     -3.31764954	     51.32398967	      0.89577260	    -17.77322972	    -21.13536226	      0.00000000	     84.33072840	      0.86210664	      8.72369063	    102.69065793	      1.79229009	    -19.57038816	    -21.67798190	      0.00000000	    -21.18987127	     -3.31218848	     -0.59006329	     63.55569702	     14.24666538	    -68.53086509	     30.01790120	     82.75799578	      0.00000000	      0.00000000	     57.41557178	     19.19446091	    -36.46134843	     31.30257715	      2.37126357	      0.00000000	      0.00000000
